<svg id="svg" version="1.1" width="400" height="400" viewBox="0 0 400 400" xmlns="http://www.w3.org/2000/svg" xmlns:xlink="http://www.w3.org/1999/xlink"><g id="svgg"><path id="path0" d="M194.714 8.620 C 194.648 8.685,194.595 16.198,194.595 25.315 L 194.595 41.892 179.730 41.892 L 164.865 41.892 164.865 47.297 L 164.865 52.703 179.728 52.703 L 194.590 52.703 194.660 69.392 L 194.730 86.081 200.541 86.081 L 206.351 86.081 206.421 69.392 L 206.491 52.703 221.759 52.703 L 237.027 52.703 237.027 47.297 L 237.027 41.892 221.759 41.892 L 206.491 41.892 206.421 25.206 L 206.351 8.520 200.592 8.510 C 197.425 8.505,194.779 8.554,194.714 8.620 M286.757 67.568 L 286.757 91.892 264.054 91.892 L 241.351 91.892 241.351 99.829 L 241.351 107.766 246.078 107.770 C 249.527 107.774,250.754 107.692,250.620 107.468 C 250.485 107.242,250.539 107.241,250.826 107.463 C 251.309 107.834,275.072 107.830,275.650 107.458 C 275.909 107.291,275.970 107.311,275.841 107.519 C 275.613 107.887,278.836 107.827,279.434 107.452 C 279.680 107.297,279.752 107.313,279.639 107.496 C 279.520 107.688,280.618 107.774,283.043 107.765 L 286.622 107.751 286.757 132.056 L 286.892 156.361 289.459 156.356 C 290.872 156.354,292.198 156.241,292.407 156.107 C 292.658 155.945,292.726 155.960,292.609 156.149 C 292.486 156.349,294.209 156.434,298.243 156.429 L 304.054 156.421 304.054 132.256 L 304.054 108.091 304.633 107.877 C 304.951 107.759,306.495 107.697,308.063 107.740 C 310.000 107.793,311.045 107.713,311.320 107.490 C 311.603 107.261,311.669 107.257,311.537 107.476 C 311.271 107.920,329.153 107.915,329.714 107.470 C 330.006 107.239,330.057 107.240,329.918 107.471 C 329.781 107.701,332.124 107.777,339.044 107.765 C 345.663 107.754,348.308 107.665,348.192 107.456 C 348.102 107.294,348.193 107.314,348.393 107.500 C 349.413 108.447,349.459 108.118,349.459 99.862 L 349.459 91.886 326.783 91.956 C 314.310 91.995,304.162 91.936,304.231 91.824 C 304.300 91.713,304.258 91.622,304.138 91.622 C 304.017 91.622,303.951 80.737,303.989 67.432 L 304.060 43.243 295.408 43.243 L 286.757 43.243 286.757 67.568 M46.486 165.541 L 46.486 181.892 31.622 181.892 L 16.757 181.892 16.757 187.637 L 16.757 193.382 31.622 193.378 L 46.486 193.375 46.486 209.660 L 46.486 225.946 52.432 225.946 L 58.378 225.946 58.378 209.638 L 58.378 193.330 69.392 192.993 C 75.449 192.808,80.696 192.611,81.050 192.556 C 81.405 192.500,83.320 192.438,85.307 192.416 L 88.919 192.378 88.919 187.135 L 88.919 181.892 73.649 181.892 L 58.378 181.892 58.378 165.541 L 58.378 149.189 52.432 149.189 L 46.486 149.189 46.486 165.541 " stroke="none" fill="#648ca4" fill-rule="evenodd"></path><path id="path1" d="M96.961 242.365 L 96.892 266.622 74.257 266.691 L 51.622 266.760 51.622 274.596 L 51.622 282.432 74.324 282.432 L 97.027 282.432 97.027 306.757 L 97.027 331.081 105.676 331.081 L 114.324 331.081 114.324 306.757 L 114.324 282.432 137.027 282.432 L 159.730 282.432 159.730 274.596 L 159.730 266.760 137.095 266.691 L 114.459 266.622 114.390 242.365 L 114.321 218.108 105.676 218.108 L 97.030 218.108 96.961 242.365 " stroke="none" fill="#c42434" fill-rule="evenodd"></path><path id="path2" d="M286.757 242.297 L 286.757 266.486 264.054 266.486 L 241.351 266.486 241.351 274.189 L 241.351 281.892 264.054 281.892 L 286.757 281.892 286.757 306.486 L 286.757 331.081 295.405 331.081 L 304.054 331.081 304.054 306.486 L 304.054 281.892 326.757 281.892 L 349.459 281.892 349.459 274.189 L 349.459 266.486 326.757 266.486 L 304.054 266.486 304.054 242.297 L 304.054 218.108 295.405 218.108 L 286.757 218.108 286.757 242.297 " stroke="none" fill="#1c447c" fill-rule="evenodd"></path><path id="path3" d="M338.649 164.054 L 338.649 181.081 323.243 181.081 L 307.838 181.081 307.838 187.973 L 307.838 194.865 323.243 194.865 L 338.649 194.865 338.649 211.892 L 338.649 228.919 346.216 228.919 L 353.784 228.919 353.784 211.892 L 353.784 194.865 369.054 194.865 L 384.324 194.865 384.324 187.973 L 384.324 181.081 369.054 181.081 L 353.784 181.081 353.784 164.054 L 353.784 147.027 346.216 147.027 L 338.649 147.027 338.649 164.054 M193.243 304.085 L 193.243 321.081 192.095 321.102 C 191.463 321.113,184.591 321.129,176.824 321.137 L 162.703 321.152 162.703 327.873 L 162.703 334.595 177.973 334.595 L 193.243 334.595 193.243 351.622 L 193.243 368.649 200.809 368.649 L 208.374 368.649 208.444 351.689 L 208.514 334.730 223.851 334.660 L 239.189 334.590 239.189 327.872 L 239.189 321.154 224.092 321.157 C 215.788 321.158,208.856 321.074,208.686 320.969 C 208.461 320.830,208.378 316.250,208.378 303.931 L 208.378 287.084 200.811 287.086 L 193.243 287.089 193.243 304.085 " stroke="none" fill="#5c6494" fill-rule="evenodd"></path><path id="path4" d="M97.027 67.568 L 97.027 91.892 74.324 91.892 L 51.622 91.892 51.622 99.459 L 51.622 107.027 74.324 107.027 L 97.027 107.027 97.027 131.764 L 97.027 156.500 105.405 156.479 L 113.784 156.458 113.784 131.742 L 113.784 107.027 136.757 107.027 L 159.730 107.027 159.730 99.459 L 159.730 91.892 136.757 91.892 L 113.784 91.892 113.784 67.568 L 113.784 43.243 105.405 43.243 L 97.027 43.243 97.027 67.568 M190.450 123.153 C 190.351 123.252,190.270 135.536,190.270 150.450 L 190.270 177.568 165.135 177.568 L 140.000 177.568 140.000 187.649 L 140.000 197.731 165.068 197.730 L 190.135 197.729 190.204 224.945 L 190.273 252.162 200.542 252.162 L 210.811 252.162 210.811 225.032 C 210.811 199.413,210.837 197.895,211.284 197.797 C 211.544 197.739,222.855 197.701,236.419 197.712 L 261.081 197.732 261.081 187.650 L 261.081 177.568 235.946 177.568 L 210.811 177.568 210.811 150.270 L 210.811 122.973 200.721 122.973 C 195.171 122.973,190.550 123.054,190.450 123.153 M62.926 266.689 C 69.217 266.730,79.433 266.730,85.628 266.689 C 91.823 266.649,86.676 266.616,74.189 266.616 C 61.703 266.616,56.634 266.649,62.926 266.689 M125.899 266.689 C 132.190 266.730,142.406 266.730,148.601 266.689 C 154.796 266.649,149.649 266.616,137.162 266.616 C 124.676 266.616,119.607 266.649,125.899 266.689 " stroke="none" fill="#ec742c" fill-rule="evenodd"></path></g></svg>