<svg id="svg" version="1.1" width="400" height="296.2962962962963" viewBox="0 0 400 296.2962962962963" xmlns="http://www.w3.org/2000/svg" xmlns:xlink="http://www.w3.org/1999/xlink"><g id="svgg"><path id="path0" d="M163.355 79.321 C 163.000 79.388,162.550 79.635,162.356 79.870 C 162.161 80.104,161.746 80.296,161.435 80.296 C 160.797 80.296,159.502 81.052,158.780 81.844 C 158.517 82.134,158.150 82.370,157.965 82.370 C 157.781 82.370,157.630 82.566,157.630 82.804 C 157.630 83.043,157.363 83.381,157.037 83.556 C 156.711 83.730,156.444 84.073,156.444 84.317 C 156.444 84.562,156.251 85.057,156.015 85.418 C 154.688 87.447,154.667 87.961,154.667 118.549 C 154.667 144.668,154.712 147.510,155.135 147.672 C 155.393 147.771,161.032 147.852,167.666 147.852 C 183.027 147.852,184.656 148.239,187.628 152.596 C 189.797 155.776,189.644 150.936,189.559 213.790 L 189.481 270.370 188.630 272.214 C 187.596 274.453,185.248 276.780,183.038 277.757 C 182.182 278.135,181.215 278.561,180.889 278.704 C 180.543 278.855,191.219 278.995,206.500 279.039 C 220.912 279.080,232.779 279.007,232.870 278.876 C 232.962 278.745,233.637 278.463,234.370 278.249 C 237.649 277.292,240.112 275.271,241.545 272.361 L 242.519 270.383 242.519 179.117 L 242.519 87.852 241.738 86.187 C 239.062 80.481,236.616 79.704,221.336 79.704 C 214.285 79.704,210.340 79.597,210.220 79.404 C 210.042 79.115,164.864 79.035,163.355 79.321 " stroke="none" fill="#fccb1c" fill-rule="evenodd"></path><path id="path1" d="M110.222 147.759 C 109.815 147.829,109.061 148.079,108.548 148.313 C 108.034 148.548,107.501 148.743,107.363 148.745 C 106.716 148.755,103.383 151.919,102.871 153.008 C 101.358 156.228,101.481 150.864,101.481 213.333 C 101.481 266.204,101.520 270.736,101.973 271.556 C 102.244 272.044,102.670 272.915,102.920 273.491 C 103.515 274.862,105.589 276.883,107.587 278.039 L 109.185 278.963 144.148 279.045 C 164.712 279.093,179.355 279.016,179.704 278.857 C 180.030 278.709,181.169 278.235,182.236 277.805 C 186.073 276.256,188.596 273.029,189.324 268.741 C 189.556 267.372,189.626 250.954,189.566 212.000 L 189.481 157.185 188.766 155.259 C 188.199 153.734,187.644 152.933,186.099 151.407 C 182.891 148.240,183.426 148.339,168.000 148.069 C 152.458 147.797,111.290 147.577,110.222 147.759 " stroke="none" fill="#fce36b" fill-rule="evenodd"></path><path id="path2" d="M218.936 17.311 C 218.862 17.385,218.471 17.510,218.067 17.590 C 217.020 17.795,214.890 18.888,214.209 19.569 C 213.890 19.888,213.521 20.148,213.388 20.148 C 213.255 20.148,212.856 20.664,212.502 21.295 C 212.147 21.925,211.660 22.606,211.418 22.806 C 211.176 23.007,210.893 23.625,210.789 24.181 C 210.685 24.737,210.481 25.265,210.337 25.354 C 209.879 25.637,210.001 78.978,210.460 79.358 C 210.718 79.573,214.851 79.707,222.978 79.765 C 234.749 79.849,235.153 79.871,236.519 80.502 C 238.472 81.404,240.918 83.811,241.949 85.846 L 242.815 87.556 242.815 179.111 L 242.815 270.667 241.958 272.358 C 240.544 275.147,236.444 278.517,234.462 278.518 C 234.268 278.518,234.026 278.653,233.924 278.818 C 233.800 279.019,243.063 279.081,262.129 279.009 C 292.730 278.892,291.650 278.910,291.396 278.501 C 291.302 278.347,291.491 278.222,291.817 278.222 C 292.143 278.222,292.492 278.089,292.593 277.926 C 292.693 277.763,293.030 277.630,293.340 277.630 C 293.651 277.630,294.048 277.363,294.222 277.037 C 294.397 276.711,294.735 276.444,294.973 276.444 C 295.212 276.444,295.407 276.301,295.407 276.125 C 295.407 275.950,295.814 275.400,296.311 274.902 C 296.808 274.405,297.292 273.616,297.385 273.147 C 297.479 272.679,297.659 272.296,297.786 272.296 C 298.637 272.296,298.664 268.509,298.664 148.478 C 298.664 28.474,298.634 24.296,297.764 24.296 C 297.609 24.296,297.481 24.084,297.481 23.823 C 297.481 22.309,294.861 19.578,292.148 18.265 L 290.222 17.333 254.647 17.255 C 235.080 17.211,219.010 17.237,218.936 17.311 " stroke="none" fill="#dc9404" fill-rule="evenodd"></path><path id="path3" d="M234.222 80.090 C 237.685 80.990,240.293 83.106,241.738 86.187 L 242.519 87.852 242.519 179.117 L 242.519 270.383 241.545 272.361 C 240.082 275.332,236.919 277.815,233.852 278.401 C 233.322 278.502,232.889 278.703,232.889 278.848 C 232.889 279.188,233.354 279.183,234.004 278.836 C 234.287 278.685,235.385 278.169,236.444 277.690 C 238.764 276.640,240.772 274.698,241.958 272.358 L 242.815 270.667 242.815 179.111 L 242.815 87.556 241.949 85.846 C 240.362 82.714,237.092 80.235,234.061 79.866 L 232.741 79.704 234.222 80.090 " stroke="none" fill="#f2b714" fill-rule="evenodd"></path><path id="path4" d="M155.065 147.921 C 155.253 148.041,161.007 148.112,167.852 148.080 C 174.696 148.047,178.763 147.984,176.889 147.938 C 168.495 147.734,154.754 147.724,155.065 147.921 M182.370 148.804 C 183.703 149.305,184.648 149.965,186.145 151.443 C 187.473 152.753,187.969 153.116,187.626 152.525 C 186.597 150.751,183.645 148.725,181.481 148.308 C 180.993 148.214,181.393 148.437,182.370 148.804 M188.753 155.444 C 189.072 156.371,189.349 157.409,189.368 157.750 C 189.395 158.248,189.429 158.269,189.537 157.853 C 189.698 157.237,188.853 154.178,188.453 153.931 C 188.299 153.836,188.434 154.517,188.753 155.444 M189.227 269.213 C 188.753 272.676,186.186 275.988,182.667 277.680 C 181.689 278.151,181.222 278.448,181.630 278.341 C 184.232 277.657,187.234 275.081,188.478 272.465 C 189.266 270.807,189.872 268.291,189.559 267.978 C 189.480 267.900,189.331 268.456,189.227 269.213 M179.704 278.815 C 179.603 278.978,179.721 279.111,179.965 279.111 C 180.209 279.111,180.492 278.978,180.593 278.815 C 180.693 278.652,180.576 278.519,180.331 278.519 C 180.087 278.519,179.804 278.652,179.704 278.815 " stroke="none" fill="#fcd44c" fill-rule="evenodd"></path></g></svg>